<svg xmlns="http://www.w3.org/2000/svg" xmlns:xlink="http://www.w3.org/1999/xlink" id="Layer_5" width="590" height="318" x="0" y="0" baseProfile="tiny" version="1.1" viewBox="0 0 590 318" xml:space="preserve"><g><path fill="#FFF" d="M52.971,286.002c0-42.864,0-254.002,0-254.002"/><g><path fill="none" stroke="#919191" stroke-miterlimit="10" d="M52.971,286.002c0-1.732,0-3.74,0-5.998"/><path fill="none" stroke="#919191" stroke-dasharray="11.524 11.524" stroke-miterlimit="10" d="M52.971,268.483 c0-55.087,0-184.983,0-224.725"/><path fill="none" stroke="#919191" stroke-miterlimit="10" d="M52.971,37.995c0-3.869,0-5.995,0-5.995"/></g></g><g><line x1="291.971" x2="291.971" y1="287.488" y2="32" fill="#FFF"/><g><line x1="291.971" x2="291.971" y1="287.488" y2="281.488" fill="none" stroke="#919191" stroke-miterlimit="10"/><line x1="291.971" x2="291.971" y1="269.894" y2="43.797" fill="none" stroke="#919191" stroke-dasharray="11.595 11.595" stroke-miterlimit="10"/><line x1="291.971" x2="291.971" y1="38" y2="32" fill="none" stroke="#919191" stroke-miterlimit="10"/></g></g><g><line x1="531" x2="531" y1="32" y2="287.488" fill="#FFF"/><g><line x1="531" x2="531" y1="32" y2="38" fill="none" stroke="#919191" stroke-miterlimit="10"/><line x1="531" x2="531" y1="49.595" y2="275.691" fill="none" stroke="#919191" stroke-dasharray="11.595 11.595" stroke-miterlimit="10"/><line x1="531" x2="531" y1="281.488" y2="287.488" fill="none" stroke="#919191" stroke-miterlimit="10"/></g></g><path fill="none" stroke="#000" stroke-miterlimit="10" d="M27.739,188.732c16,0,31.594-15.398,43-23.999c3.992-3.011,12-6,18-6	c52,0,53,52.999,124,52.999c21,0,57-10,95-43.999c12-12,20-24,20-31c0-2-1-4-3-5c-1-1-2-1-4-1c-8,0-21,6-35,17c-4,2-13,6-21,6	c-52,0-53-53-123-53c-22,0-56,15-87,40l-20,18c-9,10-13,17.999-13,23.999C21.739,186.732,23.739,188.732,27.739,188.732z"/><path fill="none" stroke="#000" stroke-miterlimit="10" d="M268.739,188.732c16,0,31.594-15.398,43-23.999c3.992-3.011,12-6,18-6	c52,0,53,52.999,124,52.999c21,0,57-10,95-43.999c12-12,20-24,20-31c0-2-1-4-3-5c-1-1-2-1-4-1c-8,0-21,6-35,17c-4,2-13,6-21,6	c-52,0-53-53-123-53c-22,0-56,15-87,40l-20,18c-9,10-13,17.999-13,23.999C262.739,186.732,264.739,188.732,268.739,188.732z"/></svg>